<svg width="211" height="211" viewBox="0 0 211 211" fill="none" xmlns="http://www.w3.org/2000/svg">
<g clip-path="url(#clip0_1_22)">
<path d="M178.031 154.623C178.031 194.516 145.722 194.516 105.5 194.516C65.2781 194.516 32.9688 194.516 32.9688 154.623C32.9688 114.731 65.6078 49.4531 105.5 49.4531C145.392 49.4531 178.031 114.402 178.031 154.623Z" fill="#FFDC6F"/>
<path opacity="0.5" d="M178.031 154.623C178.031 141.106 174.405 124.622 167.811 108.797C169.13 119.017 166.492 137.15 135.172 144.073C90.6641 153.634 113.742 166.163 96.2688 167.811C81.4328 169.13 41.8703 163.195 33.9578 140.777C33.2984 145.722 32.6391 150.338 32.6391 154.953C32.9688 194.516 65.6078 194.516 105.5 194.516C145.392 194.516 178.031 194.516 178.031 154.623Z" fill="#E9B515"/>
<path d="M124.952 135.502C123.633 128.908 118.028 126.93 112.094 126.6V117.369C113.742 118.028 115.72 119.017 117.039 120.006C119.677 121.655 122.314 117.369 119.677 115.72C117.369 114.402 114.731 113.083 112.094 112.094V101.214C112.094 97.9172 107.148 97.9172 107.148 101.214V110.775C104.511 110.445 101.873 110.445 99.2359 110.775C98.9063 108.467 98.2469 106.159 97.5875 103.852C96.9281 100.555 91.9828 101.873 92.9719 105.17C93.6313 107.478 93.9609 109.786 94.6203 112.094C94.2906 112.094 94.2906 112.094 93.9609 112.423C87.3672 115.061 83.0813 121.655 88.0266 127.919C90.3344 130.886 93.3016 131.875 96.5984 132.534C96.9281 136.82 96.9281 141.106 96.9281 145.392C94.6203 144.073 92.6422 142.095 90.9938 140.447C88.6859 138.139 85.3891 141.766 87.3672 144.073C90.3344 147.37 93.6312 149.678 96.9281 151.327C96.9281 154.953 97.2578 158.58 97.5875 162.206C97.9172 165.503 102.863 165.503 102.533 162.206C102.203 158.909 101.873 155.942 101.873 152.645C103.852 152.975 105.83 152.975 107.808 152.975C108.138 156.272 108.467 159.569 108.797 163.195C109.127 166.492 114.072 166.492 113.742 163.195C113.413 159.569 113.083 155.942 112.753 151.986C120.006 149.348 126.6 143.744 124.952 135.502ZM107.148 115.72V126.6C105.5 126.6 104.181 126.93 102.863 126.93H101.214L100.225 115.061C102.533 115.061 104.841 115.391 107.148 115.72ZM95.2797 126.27C93.9609 125.941 92.6422 124.952 91.3234 123.962C88.3563 120.995 92.6422 118.358 95.2797 117.039C95.6094 120.336 95.9391 123.303 96.2688 126.6C95.9391 126.6 95.6094 126.6 95.2797 126.27ZM106.159 147.37C104.511 147.7 103.192 147.37 101.873 147.041C101.544 142.095 101.544 137.15 101.544 131.875C103.522 131.875 105.5 131.545 107.478 131.545C107.478 136.82 107.808 141.766 107.808 147.041C107.148 147.37 106.819 147.37 106.159 147.37ZM117.039 143.744C115.72 144.733 114.072 145.392 112.753 146.052C112.423 141.106 112.423 136.491 112.423 131.545H114.072C120.336 132.864 121.984 139.787 117.039 143.744Z" fill="#E9B515"/>
<path d="M112.094 181.328H104.511V194.516L135.172 211L204.406 189.57V178.031L179.02 163.195L112.094 181.328Z" fill="#699635"/>
<path d="M105.5 173.745C105.5 173.745 113.413 186.603 135.831 197.812C135.831 197.812 170.778 196.164 204.406 173.745C204.406 173.745 184.955 164.184 179.35 151.656C179.35 151.656 166.162 170.119 105.5 173.745Z" fill="#83BF4F"/>
<path d="M90.6641 180.998L97.9172 180.669L98.9062 192.867L70.2234 211L1.31874 196.164L0.329681 185.284L23.7375 169.13L90.6641 180.998Z" fill="#699635"/>
<path d="M96.2688 173.416C96.2688 173.416 89.3453 186.273 68.575 198.472C68.575 198.472 34.6172 199.461 0 181.328C0 181.328 18.4625 170.778 22.7484 158.25C22.7484 158.25 37.2547 174.734 96.2688 173.416Z" fill="#83BF4F"/>
<path d="M79.7844 177.042C79.7844 177.042 78.7953 179.68 83.4109 180.009L71.2125 190.23C71.2125 190.23 63.9594 189.57 62.3109 194.516C62.3109 194.516 32.6391 191.219 13.5172 182.647C13.5172 182.647 17.4734 179.68 12.5281 177.702C12.5281 177.702 18.1328 173.745 19.4516 170.119C19.4516 170.119 24.7266 170.778 26.375 166.822C27.0344 166.492 46.8156 178.361 79.7844 177.042V177.042Z" stroke="#699635" stroke-miterlimit="10"/>
<path d="M29.0125 181.658C32.4721 181.658 35.2766 179.739 35.2766 177.372C35.2766 175.005 32.4721 173.086 29.0125 173.086C25.553 173.086 22.7484 175.005 22.7484 177.372C22.7484 179.739 25.553 181.658 29.0125 181.658Z" fill="#699635"/>
<path d="M62.6406 172.097C62.6406 172.097 55.0578 181.987 38.5734 195.505L39.5625 204.406L28.0234 201.769L27.3641 192.208C27.3641 192.208 44.1781 176.712 47.8047 169.13C47.475 169.13 53.4094 171.108 62.6406 172.097ZM138.798 169.789C138.798 169.789 141.766 177.702 164.184 192.208V201.769L177.042 197.813V187.922C177.042 187.922 161.547 177.042 152.316 166.163L138.798 169.789Z" fill="#F9F3D9"/>
<path d="M120.006 159.239L112.753 158.909L112.094 172.427L141.436 191.219L210.341 172.427L210.67 160.558L186.603 143.744L120.006 159.239Z" fill="#699635"/>
<path d="M114.072 150.997C114.072 150.997 121.325 164.844 142.755 177.372C142.755 177.372 177.042 177.372 211 156.272C211 156.272 192.208 145.392 187.592 131.875C187.592 131.875 173.416 150.337 114.072 150.997Z" fill="#83BF4F"/>
<path d="M128.908 154.623C128.908 154.623 130.556 157.261 125.281 158.25L139.128 169.13C139.128 169.13 147.041 167.152 149.678 171.767C149.678 171.767 182.647 165.833 197.812 157.92C197.812 157.92 192.867 155.612 197.812 152.645C197.812 152.645 191.878 147.7 189.57 144.403C189.57 144.403 183.966 146.052 180.998 142.095C180.998 142.425 169.13 152.975 128.908 154.623V154.623Z" stroke="#699635" stroke-miterlimit="10"/>
<path d="M154.294 162.866C152.975 164.514 148.689 165.173 145.062 164.184C141.436 163.195 139.787 160.888 141.106 159.239C142.425 157.591 146.711 156.931 150.337 157.92C153.964 158.909 155.612 160.888 154.294 162.866Z" fill="#699635"/>
<path d="M147.7 148.359C147.7 148.359 155.613 158.909 172.427 173.086L172.097 182.977L183.636 179.68L183.966 169.13C183.966 169.13 166.822 152.645 162.536 144.733C162.866 144.733 157.261 147.041 147.7 148.359Z" fill="#F9F3D9"/>
<path d="M151.656 6.59375C151.656 26.7047 125.611 59.3438 105.5 59.3438C85.3891 59.3438 59.3438 30.0016 59.3438 9.89062C59.3438 -10.2203 62.3109 9.89062 82.4219 9.89062C85.3891 9.89062 99.2359 0 105.5 0C109.786 0 121.984 9.89062 128.578 9.89062C146.052 9.89062 151.656 -8.57187 151.656 6.59375Z" fill="#FFDC6F"/>
<path d="M99.5656 43.8484C97.5875 45.1672 88.0266 44.1781 85.0594 46.4859C81.1031 49.4531 86.7078 56.3766 82.7516 60.6625C74.8391 68.575 68.575 77.4766 70.5531 82.4219C73.85 90.9938 80.1141 66.5969 85.7187 75.8281C91.3234 85.0594 90.3344 69.5641 98.9062 77.4766C107.478 85.3891 100.225 63.3 108.467 72.8609C116.709 82.4219 117.039 93.3016 122.973 93.3016C129.897 93.3016 115.72 67.2563 124.952 73.5203C134.183 79.7844 144.403 77.4766 135.172 67.9156C132.205 64.9484 128.248 59.6734 123.633 55.0578C121.984 53.4094 123.303 44.8375 121.655 43.5188C119.677 41.8703 114.731 47.1453 112.753 46.1563C108.797 44.1781 110.116 47.8047 104.181 48.7938C100.225 50.1125 103.522 41.2109 99.5656 43.8484Z" fill="#E9B515"/>
<path d="M61.6516 63.3C74.5094 51.1016 97.9172 58.025 111.764 63.9594C125.281 69.8937 133.523 51.1016 124.952 41.5406C120.006 35.9359 112.094 42.5297 109.127 46.4859C105.83 50.4422 103.192 54.7281 99.5656 58.6844C94.2906 64.6187 81.4328 59.6734 85.3891 51.4312C89.675 42.8594 107.808 52.75 113.742 54.3984C125.281 57.6953 137.48 59.0141 149.019 54.7281C152.975 53.4094 151.327 46.8156 147.37 48.4641C134.512 53.0797 121.655 50.1125 109.456 46.1562C103.192 44.1781 93.3016 38.9031 86.7078 41.8703C67.9156 50.7719 85.3891 76.1578 101.214 66.2672C104.841 63.9594 107.148 60.3328 109.786 57.0359C111.434 55.0578 119.677 42.5297 121.655 48.7937C122.644 52.0906 121.655 58.025 118.028 59.0141C115.72 60.0031 111.105 56.7062 108.797 56.0469C104.511 54.3984 100.225 53.0797 95.6094 52.0906C83.4109 49.4531 66.9266 50.1125 57.3656 59.0141C54.0687 61.6516 58.6844 66.2672 61.6516 63.3Z" fill="#E8E8E8"/>
<path d="M147.7 1.64844C144.403 4.28594 138.469 9.89062 128.578 9.89062C121.984 9.89062 109.786 0 105.5 0C99.2359 0 85.3891 9.89062 82.4219 9.89062C71.5422 9.89062 65.6078 4.28594 62.6406 1.97813C62.6406 1.97813 66.2672 16.8141 77.4766 24.3969C85.7188 29.6719 84.7297 23.4078 89.0156 17.4734C93.3016 11.5391 96.2687 8.57187 103.852 23.4078C107.808 31.65 115.391 0.989062 121.325 10.8797C132.205 29.0125 136.161 19.1219 147.7 1.64844Z" fill="#E9B515"/>
<path d="M172.756 172.756L172.427 182.647L183.966 179.35L184.295 168.8C184.295 169.13 177.372 171.767 172.756 172.756ZM164.184 192.538V202.098L177.042 198.142V188.252C176.712 187.922 173.416 189.9 164.184 192.538ZM38.5734 195.175L39.5625 204.406L28.0234 201.769L27.3641 192.208C27.0344 192.208 31.65 193.856 38.5734 195.175Z" fill="#FFDC6F"/>
</g>
<defs>
<clipPath id="clip0_1_22">
<rect width="211" height="211" fill="white"/>
</clipPath>
</defs>
</svg>
